<svg width="99" height="67" viewBox="0 0 99 67" fill="none" xmlns="http://www.w3.org/2000/svg">
<path d="M74.738 1.19531H3.7393C2.30814 1.19531 1.14795 2.3555 1.14795 3.78666V43.3652C1.14795 44.0524 1.42097 44.7116 1.90694 45.1975L21.7676 65.0582C22.2536 65.5442 22.9127 65.8172 23.6 65.8172H95.4085C96.8397 65.8172 97.9998 64.657 97.9998 63.2259V24.4572C97.9998 23.7699 97.7268 23.1108 97.2409 22.6248L76.5704 1.9543C76.0844 1.46833 75.4253 1.19531 74.738 1.19531Z" fill="white" stroke="#3340FF" stroke-width="0.647839"/>
<g clip-path="url(#clip0_402_851)">
<path d="M9.99215 20.4756L25.7918 19.3086C27.7325 19.142 28.2313 19.2543 29.4514 20.1415L34.495 23.6944C35.3269 24.3056 35.6038 24.4722 35.6038 25.1375V44.6233C35.6038 45.8446 35.1603 46.5669 33.608 46.6773L15.2604 47.788C14.0953 47.8433 13.5404 47.6766 12.9303 46.899L9.21648 42.0697C8.55024 41.1807 8.27417 40.5154 8.27417 39.7378V22.4171C8.27417 21.4187 8.71769 20.586 9.99215 20.4756Z" fill="white"/>
<path d="M25.7918 19.3086L9.99215 20.4755C8.71785 20.5859 8.27417 21.4188 8.27417 22.4171V39.7378C8.27417 40.5154 8.55024 41.1807 9.21648 42.0697L12.9303 46.8992C13.5404 47.6769 14.0953 47.8434 15.2604 47.7881L33.608 46.6774C35.1593 46.567 35.6038 45.8447 35.6038 44.6234V25.1375C35.6038 24.5062 35.3545 24.3245 34.6207 23.7859L34.494 23.6944L29.4514 20.1415C28.2313 19.2544 27.7327 19.1419 25.7918 19.3086ZM15.6753 24.8185C14.1771 24.9194 13.8374 24.9422 12.9865 24.2503L10.8231 22.5294C10.6033 22.3067 10.7137 22.0288 11.2676 21.9735L26.4563 20.8638C27.7315 20.7524 28.3958 21.1969 28.8946 21.5853L31.4998 23.4727C31.6112 23.5289 31.8881 23.8611 31.5549 23.8611L15.8696 24.8051L15.6753 24.8185V24.8185ZM13.9287 44.4568V27.9147C13.9287 27.1922 14.1504 26.859 14.8149 26.8029L32.8304 25.7484C33.4413 25.6931 33.7174 26.0815 33.7174 26.8029V43.2347C33.7174 43.957 33.606 44.5681 32.6086 44.6233L15.3688 45.6228C14.3714 45.6779 13.9287 45.3457 13.9287 44.4568V44.4568ZM30.9467 28.8018C31.0571 29.3015 30.9467 29.8011 30.4469 29.8582L29.6162 30.0229V42.2363C28.8946 42.6245 28.2303 42.8463 27.6754 42.8463C26.7884 42.8463 26.5667 42.5683 25.9022 41.7365L20.4685 33.1876V41.4585L22.1874 41.8479C22.1874 41.8479 22.1874 42.8474 20.8006 42.8474L16.9774 43.0692C16.866 42.8463 16.9774 42.2914 17.3647 42.181L18.3632 41.904V30.9679L16.9774 30.8558C16.866 30.356 17.1429 29.6345 17.9195 29.5782L22.0217 29.3023L27.6754 37.9617V30.3007L26.2345 30.1352C26.1231 29.5231 26.5667 29.0786 27.1206 29.0245L30.9467 28.8018V28.8018ZM47.7107 39.4703V31.9417H47.841L53.27 39.4703H54.9794V28.4068H53.0787V35.9278H52.9483L47.5193 28.4068H45.8032V39.4693H47.7116L47.7107 39.4703V39.4703ZM60.3514 39.6398C62.8593 39.6398 64.385 37.9988 64.385 35.2768C64.385 32.5622 62.8516 30.9138 60.3514 30.9138C57.8595 30.9138 56.3186 32.5699 56.3186 35.2766C56.3186 37.9988 57.8367 39.6398 60.3514 39.6398V39.6398ZM60.3514 38.0446C59.0255 38.0446 58.2668 37.0329 58.2668 35.2768C58.2668 33.5284 59.0255 32.509 60.3514 32.509C61.6705 32.509 62.4291 33.5283 62.4291 35.2768C62.4291 37.0329 61.6781 38.0446 60.3514 38.0446ZM66.1219 29.0282V31.1365H64.7962V32.6546H66.1219V37.2318C66.1219 38.8574 66.8892 39.5093 68.8135 39.5093C69.181 39.5093 69.5342 39.4712 69.8102 39.4171V37.9294C69.5799 37.9522 69.4341 37.9675 69.1658 37.9675C68.3692 37.9675 68.016 37.6001 68.016 36.7719V32.6547H69.8102V31.1367H68.016V29.0272H66.1221V29.0282H66.1219ZM70.9495 39.4703H72.8436V31.0822H70.9495V39.4704V39.4703ZM71.8928 29.6954C72.5209 29.6954 73.0273 29.1881 73.0273 28.5524C73.0273 27.9155 72.5219 27.4016 71.8928 27.4016C71.2722 27.4016 70.7583 27.9155 70.7583 28.5522C70.7583 29.1881 71.2722 29.6944 71.8928 29.6944V29.6954ZM78.0393 39.6398C80.5463 39.6398 82.0721 37.9988 82.0721 35.2768C82.0721 32.5622 80.5388 30.9138 78.0393 30.9138C75.5466 30.9138 74.0057 32.5699 74.0057 35.2766C74.0057 37.9988 75.5238 39.6398 78.0393 39.6398ZM78.0393 38.0446C76.7126 38.0446 75.953 37.0329 75.953 35.2768C75.953 33.5284 76.7126 32.509 78.0393 32.509C79.3577 32.509 80.1171 33.5283 80.1171 35.2768C80.1171 37.0329 79.3652 38.0446 78.0393 38.0446ZM83.2037 39.4703H85.1055V34.5868C85.1055 33.3521 85.8193 32.5699 86.9529 32.5699C88.1112 32.5699 88.6471 33.2143 88.6471 34.4944V39.4703H90.5497V34.0423C90.5497 32.0407 89.5293 30.9136 87.6591 30.9136C86.4084 30.9136 85.5653 31.4886 85.1664 32.4241H85.036V31.0823H83.2037V39.4703V39.4703Z" fill="black"/>
</g>
<defs>
<clipPath id="clip0_402_851">
<rect width="82.2755" height="28.6036" fill="white" transform="translate(8.27417 19.2437)"/>
</clipPath>
</defs>
</svg>
