<svg width="99" height="67" viewBox="0 0 99 67" fill="none" xmlns="http://www.w3.org/2000/svg">
<path d="M74.6689 1.18262H3.67021C2.23905 1.18262 1.07886 2.3428 1.07886 3.77397V43.3525C1.07886 44.0397 1.35187 44.6989 1.83785 45.1848L21.6985 65.0455C22.1845 65.5315 22.8436 65.8045 23.5309 65.8045H95.3394C96.7706 65.8045 97.9308 64.6443 97.9308 63.2132V24.4445C97.9308 23.7572 97.6577 23.0981 97.1718 22.6121L76.5013 1.94161C76.0153 1.45563 75.3562 1.18262 74.6689 1.18262Z" fill="white" stroke="#3340FF" stroke-width="0.647839"/>
<g clip-path="url(#clip0_402_859)">
<path d="M41.8117 56.4818C46.0583 56.4818 49.5048 53.0352 49.5048 48.7887V41.0956H41.8117C37.5652 41.0956 34.1187 44.5421 34.1187 48.7887C34.1187 53.0352 37.5652 56.4818 41.8117 56.4818Z" fill="#0ACF83"/>
<path d="M34.1187 33.4024C34.1187 29.1559 37.5652 25.7094 41.8117 25.7094H49.5048V41.0955H41.8117C37.5652 41.0955 34.1187 37.649 34.1187 33.4024Z" fill="#A259FF"/>
<path d="M34.1187 18.0163C34.1187 13.7697 37.5652 10.3232 41.8117 10.3232H49.5048V25.7094H41.8117C37.5652 25.7094 34.1187 22.2629 34.1187 18.0163Z" fill="#F24E1E"/>
<path d="M49.5049 10.3232H57.198C61.4446 10.3232 64.8911 13.7697 64.8911 18.0163C64.8911 22.2629 61.4446 25.7094 57.198 25.7094H49.5049V10.3232Z" fill="#FF7262"/>
<path d="M64.8911 33.4024C64.8911 37.649 61.4446 41.0955 57.198 41.0955C52.9514 41.0955 49.5049 37.649 49.5049 33.4024C49.5049 29.1559 52.9514 25.7094 57.198 25.7094C61.4446 25.7094 64.8911 29.1559 64.8911 33.4024Z" fill="#1ABCFE"/>
</g>
<defs>
<clipPath id="clip0_402_859">
<rect width="30.7723" height="46.1585" fill="white" transform="translate(34.1187 10.3232)"/>
</clipPath>
</defs>
</svg>
