<svg width="99" height="67" viewBox="0 0 99 67" fill="none" xmlns="http://www.w3.org/2000/svg">
<path d="M74.8862 1.19531H3.8875C2.45633 1.19531 1.29614 2.3555 1.29614 3.78666V43.3652C1.29614 44.0524 1.56916 44.7116 2.05513 45.1975L21.9158 65.0582C22.4018 65.5442 23.0609 65.8172 23.7482 65.8172H95.5567C96.9878 65.8172 98.148 64.657 98.148 63.2259V24.4572C98.148 23.7699 97.875 23.1108 97.3891 22.6248L76.7186 1.9543C76.2326 1.46833 75.5735 1.19531 74.8862 1.19531Z" fill="white" stroke="#3340FF" stroke-width="0.647839"/>
<g clip-path="url(#clip0_402_846)">
<path d="M49.8843 15.3567C45.4288 15.3567 42.6439 17.5844 41.5302 22.0399C43.2011 19.8118 45.1504 18.9765 47.3781 19.5337C48.6489 19.8513 49.5575 20.7735 50.5631 21.7943C52.2011 23.4566 54.097 25.3813 58.238 25.3813C62.6934 25.3813 65.478 23.1536 66.5917 18.6981C64.9212 20.9262 62.9719 21.7614 60.7441 21.2043C59.473 20.8866 58.5648 19.9645 57.5591 18.9437C55.9208 17.2813 54.0253 15.3567 49.8843 15.3567ZM41.5302 25.3813C37.0751 25.3813 34.2902 27.609 33.1765 32.0644C34.8474 29.8364 36.7964 29.0011 39.0241 29.5583C40.2952 29.8759 41.2038 30.7981 42.2091 31.8186C43.8474 33.4815 45.7433 35.4056 49.8843 35.4056C54.3394 35.4056 57.124 33.1781 58.238 28.7227C56.5671 30.9507 54.6178 31.786 52.3904 31.2289C51.1193 30.9112 50.2107 29.9891 49.2051 28.9683C47.5671 27.3059 45.6712 25.3813 41.5302 25.3813V25.3813Z" fill="url(#paint0_linear_402_846)"/>
<path d="M17.6772 45.9992H15.8708V49.4956C15.8708 50.4279 16.4827 50.4134 17.6772 50.3551V51.7681C15.259 52.0594 14.2975 51.3894 14.2975 49.4956V45.9994H12.9573V44.4843H14.2975V42.5276L15.8708 42.0616V44.4843H17.6772V45.9994V45.9992ZM24.5631 44.4843H26.1365V51.7681H24.5631V50.7193C24.0096 51.4915 23.1501 51.9576 22.0139 51.9576C20.0325 51.9576 18.3863 50.2823 18.3863 48.1262C18.3863 45.9557 20.0325 44.295 22.0137 44.295C23.1501 44.295 24.0096 44.761 24.5631 45.5187V44.4843V44.4843ZM22.2614 50.4571C23.5724 50.4571 24.5631 49.4811 24.5631 48.1262C24.5631 46.7714 23.5724 45.7953 22.2614 45.7953C20.9504 45.7953 19.9597 46.7714 19.9597 48.1262C19.9597 49.4811 20.9504 50.4571 22.2614 50.4571ZM28.7587 43.3916C28.205 43.3916 27.7535 42.9257 27.7535 42.3866C27.754 42.1202 27.8601 41.8648 28.0485 41.6764C28.2369 41.488 28.4922 41.382 28.7587 41.3815C29.0251 41.382 29.2805 41.488 29.4689 41.6764C29.6573 41.8648 29.7633 42.1202 29.7639 42.3866C29.7639 42.9257 29.3122 43.3916 28.7587 43.3916V43.3916ZM27.972 51.7681V44.4843H29.5452V51.7681H27.972V51.7681ZM31.3662 51.7681V41.1338H32.9396V51.7681H31.3662ZM43.1516 44.4843H44.8123L42.525 51.7681H40.9808L39.4658 46.8589L37.9363 51.7681H36.3921L34.1049 44.4843H35.7656L37.1788 49.5103L38.7083 44.4843H40.2088L41.7239 49.5103L43.1516 44.4843ZM46.7643 43.3918C46.2108 43.3918 45.7591 42.9257 45.7591 42.3866C45.7596 42.1202 45.8657 41.8648 46.0541 41.6764C46.2425 41.488 46.4978 41.382 46.7643 41.3815C47.0307 41.382 47.2861 41.488 47.4745 41.6764C47.6629 41.8648 47.7689 42.1202 47.7695 42.3866C47.7695 42.9257 47.3178 43.3916 46.7643 43.3916V43.3918ZM45.9776 51.7681V44.4843H47.551V51.7681H45.9776V51.7681ZM53.2032 44.2948C54.8347 44.2948 56.0003 45.402 56.0003 47.2959V51.7681H54.4269V47.456C54.4269 46.349 53.7859 45.7664 52.7954 45.7664C51.761 45.7664 50.9452 46.378 50.9452 47.8641V51.7681H49.3718V44.4843H50.9452V45.4167C51.426 44.659 52.2125 44.2948 53.2032 44.2948ZM63.4589 41.5708H65.0322V51.7681H63.4589V50.7193C62.9054 51.4915 62.0459 51.9576 60.9097 51.9576C58.9283 51.9576 57.2821 50.2823 57.2821 48.1262C57.2821 45.9557 58.9283 44.295 60.9095 44.295C62.0459 44.295 62.9054 44.761 63.4589 45.5187V41.5708V41.5708ZM61.1572 50.4571C62.4682 50.4571 63.4589 49.4811 63.4589 48.1262C63.4589 46.7714 62.4682 45.7953 61.1572 45.7953C59.8462 45.7953 58.8555 46.7714 58.8555 48.1262C58.8555 49.4811 59.8462 50.4571 61.1572 50.4571ZM70.3056 51.9576C68.1059 51.9576 66.4597 50.2823 66.4597 48.1262C66.4597 45.9557 68.1059 44.295 70.3056 44.295C71.7333 44.295 72.9715 45.0378 73.5544 46.1742L72.1995 46.9609C71.879 46.2762 71.1651 45.839 70.2911 45.839C69.0091 45.839 68.0331 46.8152 68.0331 48.1262C68.0331 49.4372 69.0091 50.4134 70.2911 50.4134C71.1651 50.4134 71.879 49.9618 72.2287 49.2916L73.5835 50.0638C72.9715 51.2146 71.7333 51.9576 70.3056 51.9576ZM76.1764 46.4947C76.1764 47.8202 80.0951 47.019 80.0951 49.7141C80.0951 51.1708 78.8278 51.9576 77.2544 51.9576C75.7977 51.9576 74.7489 51.3019 74.2827 50.2531L75.6376 49.4664C75.8706 50.1221 76.4532 50.5152 77.2544 50.5152C77.9538 50.5152 78.4928 50.2823 78.4928 49.6996C78.4928 48.4031 74.574 49.1314 74.574 46.5239C74.574 45.1543 75.7541 44.295 77.2399 44.295C78.4344 44.295 79.4249 44.8485 79.935 45.81L78.6095 46.5529C78.3471 45.9849 77.8373 45.7227 77.2399 45.7227C76.6717 45.7227 76.1764 45.9702 76.1764 46.4947V46.4947ZM82.8922 46.4947C82.8922 47.8202 86.8109 47.019 86.8109 49.7141C86.8109 51.1708 85.5436 51.9576 83.9702 51.9576C82.5135 51.9576 81.4645 51.3019 80.9983 50.2531L82.3532 49.4664C82.5861 50.1221 83.169 50.5152 83.9702 50.5152C84.6694 50.5152 85.2084 50.2823 85.2084 49.6996C85.2084 48.4031 81.2898 49.1314 81.2898 46.5239C81.2898 45.1543 82.4697 44.295 83.9557 44.295C85.15 44.295 86.1407 44.8485 86.6507 45.81L85.3251 46.5529C85.0627 45.9849 84.5529 45.7227 83.9557 45.7227C83.3875 45.7227 82.8922 45.9702 82.8922 46.4947V46.4947Z" fill="#2D3748"/>
</g>
<defs>
<linearGradient id="paint0_linear_402_846" x1="32.2482" y1="21.7723" x2="61.1075" y2="38.4123" gradientUnits="userSpaceOnUse">
<stop stop-color="#2298BD"/>
<stop offset="1" stop-color="#0ED7B5"/>
</linearGradient>
<clipPath id="clip0_402_846">
<rect width="73.8536" height="36.6009" fill="white" transform="translate(12.9573 15.3567)"/>
</clipPath>
</defs>
</svg>
