<svg width="99" height="67" viewBox="0 0 99 67" fill="none" xmlns="http://www.w3.org/2000/svg">
<path d="M74.8862 1.18262H3.8875C2.45633 1.18262 1.29614 2.3428 1.29614 3.77397V43.3525C1.29614 44.0397 1.56916 44.6989 2.05513 45.1848L21.9158 65.0455C22.4018 65.5315 23.0609 65.8045 23.7482 65.8045H95.5567C96.9878 65.8045 98.148 64.6443 98.148 63.2132V24.4445C98.148 23.7572 97.875 23.0981 97.3891 22.6121L76.7186 1.94161C76.2326 1.45563 75.5735 1.18262 74.8862 1.18262Z" fill="white" stroke="#3340FF" stroke-width="0.647839"/>
<g clip-path="url(#clip0_402_867)">
<path d="M13.1118 39.0273V30.8441H23.329V30.3654H13.1118V22.9H23.975V22.4215H12.6333V39.5058H24.0706V39.0273H13.112H13.1118ZM33.2829 27.207L29.0478 32.7822L24.9082 27.2071H24.286L28.7606 33.1412L23.8552 39.5057H24.4295L29.0475 33.4998L33.6895 39.5057H34.2877L29.3586 33.1409L33.857 27.2068H33.2828L33.2829 27.207ZM35.7235 43.7171V36.0604H35.7713C36.0585 37.177 36.6248 38.0743 37.4703 38.7523C38.3157 39.4301 39.3924 39.7692 40.7004 39.7692C41.5458 39.7692 42.2956 39.5977 42.9497 39.2548C43.6037 38.9118 44.15 38.4452 44.5887 37.855C45.0273 37.2647 45.3623 36.5788 45.5937 35.7972C45.8249 35.0156 45.9407 34.194 45.9407 33.3328C45.9407 32.4075 45.8209 31.554 45.5816 30.7724C45.3424 29.9908 44.9954 29.3128 44.5409 28.7386C44.0862 28.1643 43.5359 27.7175 42.8898 27.3987C42.2438 27.0796 41.514 26.92 40.7004 26.92C40.0783 26.92 39.5001 27.0118 38.9657 27.1952C38.4313 27.3787 37.9568 27.6378 37.5421 27.9729C37.1249 28.3105 36.7617 28.7099 36.4653 29.1572C36.1622 29.6119 35.9309 30.1104 35.7713 30.6528H35.7235V27.207H35.245V43.7171H35.7235V43.7171ZM40.7004 39.3144C39.2011 39.3144 37.9966 38.8 37.0874 37.7711C36.1782 36.7423 35.7235 35.2626 35.7235 33.3325C35.7235 32.5349 35.8352 31.7772 36.0585 31.0594C36.2819 30.3416 36.6048 29.7114 37.0275 29.1692C37.4503 28.6267 37.9728 28.196 38.5947 27.8771C39.2169 27.558 39.9189 27.3984 40.7004 27.3984C41.498 27.3984 42.196 27.558 42.7941 27.8771C43.3923 28.196 43.8869 28.6307 44.2776 29.1811C44.6684 29.7314 44.9635 30.3616 45.163 31.0713C45.3623 31.7812 45.462 32.5349 45.462 33.3325C45.462 34.0504 45.3704 34.7643 45.1869 35.474C45.0035 36.1839 44.7203 36.822 44.3374 37.3884C43.9547 37.9545 43.4642 38.4171 42.8659 38.7761C42.2676 39.135 41.5458 39.3144 40.7004 39.3144V39.3144ZM48.5727 39.5058V32.5429C48.5727 31.8729 48.6683 31.2188 48.8599 30.5809C49.0512 29.9428 49.3463 29.3804 49.7451 28.894C50.1439 28.4074 50.6503 28.0246 51.2645 27.7454C51.8786 27.4662 52.6085 27.3506 53.4539 27.3984V26.9199C52.7201 26.9041 52.0781 26.9837 51.5278 27.1591C50.9773 27.3346 50.5028 27.5739 50.104 27.8771C49.7052 28.1801 49.3862 28.535 49.147 28.9418C48.9079 29.348 48.7305 29.7875 48.6205 30.2458H48.5727V27.207H48.0941V39.506H48.5727V39.5058ZM54.0521 33.4521H64.3409C64.3729 32.6067 64.2892 31.7932 64.0897 31.0116C63.8904 30.2299 63.5713 29.5359 63.1327 28.9299C62.694 28.3237 62.1277 27.8371 61.4338 27.4702C60.7398 27.1033 59.9143 26.9199 58.9573 26.9199C58.2713 26.9199 57.6013 27.0635 56.9473 27.3507C56.2933 27.6378 55.719 28.0564 55.2245 28.6068C54.7301 29.1571 54.3312 29.8311 54.0282 30.6288C53.7252 31.4263 53.5735 32.3355 53.5735 33.3565C53.5735 34.2657 53.6772 35.1151 53.8846 35.9047C54.092 36.6943 54.411 37.3804 54.8416 37.9626C55.2725 38.5448 55.8268 38.9954 56.5047 39.3144C57.1825 39.6335 58.0001 39.785 58.9573 39.7691C60.361 39.7691 61.5415 39.3741 62.4985 38.5847C63.4557 37.795 64.0219 36.6824 64.1974 35.2467H63.7189C63.5115 36.6027 62.981 37.6196 62.1277 38.2975C61.2742 38.9755 60.2016 39.3144 58.9093 39.3144C58.032 39.3144 57.2902 39.1629 56.6841 38.8598C56.078 38.5568 55.5834 38.1419 55.2005 37.6156C54.8178 37.0891 54.5346 36.471 54.3512 35.7611C54.1677 35.0514 54.068 34.2816 54.0521 33.4521ZM63.8624 32.9736H54.0522C54.0999 32.1122 54.2594 31.3386 54.5306 30.6527C54.8019 29.9666 55.1567 29.3804 55.5955 28.894C56.0341 28.4074 56.5446 28.0366 57.1268 27.7813C57.709 27.5261 58.3352 27.3984 59.0051 27.3984C59.8027 27.3984 60.5044 27.546 61.1108 27.8412C61.7168 28.1363 62.2233 28.5391 62.6302 29.0495C63.0369 29.5599 63.3439 30.1542 63.5513 30.832C63.7587 31.51 63.8624 32.2239 63.8624 32.9736ZM74.271 30.8441H74.7495C74.7495 29.4722 74.3507 28.4752 73.5532 27.8531C72.7555 27.231 71.6708 26.9199 70.299 26.9199C69.5332 26.9199 68.8873 27.0157 68.3608 27.2071C67.8344 27.3984 67.4037 27.6457 67.0687 27.9487C66.7338 28.2518 66.4945 28.5868 66.3509 28.9537C66.2073 29.3207 66.1355 29.6717 66.1355 30.0066C66.1355 30.6765 66.2551 31.2109 66.4945 31.6097C66.7338 32.0085 67.1086 32.3196 67.619 32.5429C67.97 32.7023 68.3687 32.8459 68.8154 32.9737C69.2621 33.1013 69.7805 33.2368 70.3708 33.3803C70.8971 33.5081 71.4156 33.6356 71.9261 33.7632C72.4365 33.8908 72.8872 34.0623 73.2779 34.2776C73.6688 34.493 73.9878 34.7682 74.2351 35.1032C74.4823 35.4381 74.6059 35.8769 74.6059 36.4192C74.6059 36.9456 74.4824 37.3923 74.2351 37.7591C73.9899 38.1241 73.6672 38.4305 73.29 38.6565C72.9071 38.8877 72.4803 39.0552 72.0098 39.1589C71.5392 39.2625 71.0807 39.3144 70.634 39.3144C69.1824 39.3144 68.0697 38.9914 67.296 38.3454C66.5224 37.6993 66.1356 36.6824 66.1356 35.2945H65.657C65.657 36.8419 66.0757 37.9745 66.9132 38.6924C67.7507 39.4102 68.9909 39.7691 70.634 39.7691C71.1604 39.7691 71.6907 39.7092 72.2252 39.5895C72.7595 39.4699 73.2381 39.2746 73.6608 39.0033C74.0799 38.7359 74.4319 38.3757 74.6896 37.9506C74.9529 37.5198 75.0846 36.9935 75.0846 36.3713C75.0846 35.7811 74.9688 35.3026 74.7376 34.9356C74.5062 34.5688 74.2032 34.2657 73.8282 34.0264C73.4534 33.7872 73.0308 33.5997 72.5602 33.4642C72.0869 33.3278 71.6123 33.1962 71.1364 33.0692C70.5507 32.9156 69.9645 32.7641 69.3777 32.6147C68.8753 32.487 68.4087 32.3355 67.978 32.16C67.5633 31.9845 67.2323 31.7334 66.985 31.4063C66.7377 31.0793 66.6142 30.6127 66.6142 30.0066C66.6142 29.895 66.646 29.6955 66.7098 29.4084C66.7736 29.1212 66.9252 28.8301 67.1645 28.535C67.4037 28.24 67.7705 27.9767 68.2651 27.7454C68.7596 27.5142 69.4376 27.3984 70.299 27.3984C70.8892 27.3984 71.4275 27.4623 71.914 27.5898C72.4006 27.7175 72.8194 27.9209 73.1702 28.2001C73.5212 28.4792 73.7923 28.8341 73.9838 29.2648C74.1752 29.6956 74.271 30.222 74.271 30.8441V30.8441ZM85.3494 30.8441H85.828C85.828 29.4722 85.4293 28.4752 84.6317 27.8531C83.834 27.231 82.7493 26.9199 81.3774 26.9199C80.6118 26.9199 79.9657 27.0157 79.4393 27.2071C78.9129 27.3984 78.4822 27.6457 78.1473 27.9487C77.8122 28.2518 77.573 28.5868 77.4293 28.9537C77.2857 29.3207 77.2141 29.6717 77.2141 30.0066C77.2141 30.6765 77.3337 31.2109 77.5731 31.6097C77.8122 32.0085 78.1872 32.3196 78.6976 32.5429C79.0486 32.7023 79.4472 32.8459 79.8939 32.9737C80.3405 33.1013 80.859 33.2368 81.4492 33.3803C81.9757 33.5081 82.4941 33.6356 83.0045 33.7632C83.5151 33.8908 83.9656 34.0623 84.3565 34.2776C84.7473 34.493 85.0664 34.7682 85.3135 35.1032C85.5608 35.4381 85.6845 35.8769 85.6845 36.4192C85.6845 36.9456 85.5608 37.3923 85.3135 37.7591C85.0684 38.1241 84.7457 38.4305 84.3686 38.6565C83.9855 38.8877 83.5589 39.0552 83.0883 39.1589C82.6178 39.2625 82.1591 39.3144 81.7124 39.3144C80.2608 39.3144 79.1482 38.9914 78.3746 38.3454C77.6008 37.6993 77.2141 36.6824 77.2141 35.2945H76.7355C76.7355 36.8419 77.1542 37.9745 77.9917 38.6924C78.8291 39.4102 80.0694 39.7691 81.7124 39.7691C82.2389 39.7691 82.7693 39.7092 83.3037 39.5895C83.8379 39.4699 84.3166 39.2746 84.7394 39.0033C85.1584 38.7359 85.5104 38.3757 85.7682 37.9506C86.0315 37.5198 86.163 36.9935 86.163 36.3713C86.163 35.7811 86.0474 35.3026 85.816 34.9356C85.5848 34.5688 85.2818 34.2657 84.9068 34.0264C84.532 33.7872 84.1092 33.5997 83.6387 33.4642C83.1655 33.3278 82.6908 33.1962 82.2149 33.0692C81.6293 32.9156 81.043 32.7641 80.4563 32.6147C79.9538 32.487 79.4872 32.3355 79.0565 32.16C78.6417 31.9845 78.3107 31.7334 78.0635 31.4063C77.8162 31.0793 77.6926 30.6127 77.6926 30.0066C77.6926 29.895 77.7245 29.6955 77.7884 29.4084C77.8521 29.1212 78.0038 28.8301 78.2429 28.535C78.4822 28.24 78.8491 27.9767 79.3436 27.7454C79.8382 27.5142 80.516 27.3984 81.3775 27.3984C81.9678 27.3984 82.506 27.4623 82.9926 27.5898C83.4792 27.7175 83.8978 27.9209 84.2488 28.2001C84.5998 28.4792 84.8709 28.8341 85.0624 29.2648C85.2538 29.6956 85.3496 30.222 85.3496 30.8441H85.3494Z" fill="#222222"/>
</g>
<defs>
<clipPath id="clip0_402_867">
<rect width="73.5297" height="21.3983" fill="white" transform="translate(12.6333 22.4215)"/>
</clipPath>
</defs>
</svg>
