<svg width="99" height="67" viewBox="0 0 99 67" fill="none" xmlns="http://www.w3.org/2000/svg">
<path d="M74.6689 1.19531H3.67021C2.23905 1.19531 1.07886 2.3555 1.07886 3.78666V43.3652C1.07886 44.0524 1.35187 44.7116 1.83785 45.1975L21.6985 65.0582C22.1845 65.5442 22.8436 65.8172 23.5309 65.8172H95.3394C96.7706 65.8172 97.9308 64.657 97.9308 63.2259V24.4572C97.9308 23.7699 97.6577 23.1108 97.1718 22.6248L76.5013 1.9543C76.0153 1.46833 75.3562 1.19531 74.6689 1.19531Z" fill="white" stroke="#3340FF" stroke-width="0.647839"/>
<g clip-path="url(#clip0_402_842)">
<path d="M76.4702 26.548V28.8598H71.5015V41.0223H69.017V28.86H63.9448V26.548H76.4702ZM77.0287 39.6435C77.2037 39.6435 77.3568 39.7065 77.4865 39.8326C77.6179 39.9586 77.6834 40.1095 77.6852 40.2854C77.6849 40.4008 77.6528 40.5138 77.5925 40.6122C77.5334 40.7093 77.4505 40.7898 77.3518 40.8461C77.2542 40.9044 77.1424 40.9348 77.0287 40.934C76.8467 40.934 76.6919 40.8709 76.5625 40.7449C76.4328 40.6188 76.3686 40.4661 76.3703 40.2854C76.3688 40.1095 76.4328 39.9586 76.5625 39.8326C76.6919 39.7065 76.8467 39.6435 77.0287 39.6435ZM27.7866 41.0223L18.6257 29.6358V41.0164H16.1411V26.542H19.2466L30.8205 40.914L30.8206 28.86L30.8196 26.548H43.3449V28.8598H33.305V32.5789H41.3792V34.8909H33.305V38.7105H43.345V41.0223H27.7866ZM51.3075 34.8688L52.9358 36.8931L49.5994 41.0395H46.3389L51.3075 34.8688V34.8688ZM49.5994 26.5541L53.803 31.7746L57.9935 26.5701L61.2449 26.5652L55.4309 33.7962L61.2543 41.0284H57.9935L46.3481 26.5541H49.5994ZM81.2691 34.8364H82.3699V39.0779C82.3684 39.4677 82.2839 39.801 82.1192 40.0815C81.9525 40.3617 81.7217 40.5757 81.4257 40.7267C81.131 40.8758 80.7859 40.9522 80.3936 40.9522C80.0351 40.9522 79.7137 40.8876 79.4275 40.7615C79.1412 40.6354 78.9141 40.4463 78.7474 40.1975C78.5789 39.9487 78.4964 39.6385 78.4964 39.267H79.5992C79.6009 39.4295 79.6379 39.5704 79.7085 39.6883C79.7781 39.8048 79.8798 39.8986 80.0015 39.9586C80.1276 40.0218 80.2726 40.0532 80.4356 40.0532C80.6126 40.0532 80.764 40.0167 80.8869 39.942C81.0096 39.869 81.104 39.7595 81.1698 39.6136C81.2337 39.4692 81.2674 39.2902 81.2691 39.0778V34.8362V34.8364ZM86.8997 36.4951C86.873 36.2381 86.755 36.0372 86.5497 35.8947C86.3425 35.7503 86.075 35.6791 85.7466 35.6791C85.5162 35.6791 85.3175 35.7139 85.1525 35.7819C84.9876 35.8515 84.8596 35.9444 84.772 36.0622C84.6846 36.1799 84.6408 36.3143 84.6373 36.4653C84.6373 36.5913 84.6676 36.7008 84.7265 36.792C84.7876 36.8876 84.87 36.9677 84.9672 37.026C85.0729 37.0924 85.1859 37.1464 85.304 37.1868C85.4285 37.2299 85.5532 37.2664 85.6776 37.2963L86.2516 37.4374C86.4824 37.4904 86.7063 37.5617 86.92 37.6529C87.1337 37.7426 87.3273 37.857 87.4973 37.9947C87.6674 38.1323 87.8021 38.2982 87.9014 38.4923C88.0007 38.6864 88.0512 38.9136 88.0512 39.1757C88.0512 39.5289 87.9603 39.8392 87.7768 40.1079C87.5933 40.375 87.329 40.584 86.9823 40.735C86.6372 40.8843 86.2196 40.9605 85.7282 40.9605C85.2535 40.9605 84.8394 40.8875 84.4908 40.7416C84.1408 40.5973 83.8681 40.3848 83.671 40.1062C83.4741 39.8275 83.3681 39.4875 83.3529 39.0878H84.4439C84.4589 39.2968 84.5264 39.4709 84.6408 39.6119C84.7568 39.7513 84.9084 39.8541 85.0936 39.9237C85.2804 39.9919 85.4891 40.0267 85.7198 40.0267C85.9605 40.0267 86.1726 39.9902 86.356 39.9188C86.5379 39.8475 86.6809 39.748 86.7837 39.6185C86.888 39.4907 86.9403 39.3399 86.9419 39.1674C86.9403 39.0098 86.8929 38.8788 86.8021 38.7758C86.7095 38.673 86.5816 38.5868 86.4182 38.5171C86.2535 38.4475 86.0615 38.3844 85.8426 38.3298L85.1457 38.1539C84.6424 38.0261 84.2435 37.8322 83.9522 37.5716C83.6594 37.3112 83.5146 36.9663 83.5146 36.5333C83.5146 36.1784 83.6122 35.8664 83.8092 35.5993C84.0044 35.3324 84.2721 35.125 84.6105 34.9774C84.9504 34.8281 85.3344 34.7551 85.7618 34.7551C86.1962 34.7551 86.5765 34.8281 86.9049 34.9774C87.233 35.125 87.4907 35.3306 87.6773 35.5927C87.8643 35.8549 87.962 36.1551 87.9671 36.4951H86.8997V36.4951Z" fill="black"/>
</g>
<defs>
<clipPath id="clip0_402_842">
<rect x="16.1411" y="26.542" width="71.9101" height="14.6067" rx="2.59136" fill="white"/>
</clipPath>
</defs>
</svg>
